<svg xmlns="http://www.w3.org/2000/svg" viewBox="0 0 30 20">
<rect width="30" height="20" fill="#DE2910"/>
<polygon fill="#FFDE00" points="5.0000,2.0000 5.6735,4.0729 7.8532,4.0729 6.0898,5.3541 6.7634,7.4271 5.0000,6.1459 3.2366,7.4271 3.9102,5.3541 2.1468,4.0729 4.3265,4.0729"/>
<polygon fill="#FFDE00" points="10.5145,2.8575 9.9665,2.3805 9.3435,2.7543 9.6278,2.0857 9.0797,1.6087 9.8035,1.6725 10.0878,1.0039 10.2508,1.7119 10.9745,1.7757 10.3515,2.1495"/>
<polygon fill="#FFDE00" points="12.1414,4.9899 11.8214,4.3377 11.1022,4.4404 11.6237,3.9345 11.3037,3.2822 11.9460,3.6219 12.4675,3.1160 12.3429,3.8318 12.9852,4.1714 12.2660,4.2742"/>
<polygon fill="#FFDE00" points="11.7253,7.9615 11.6992,7.2354 11.0006,7.0359 11.6831,6.7867 11.6571,6.0606 12.1049,6.6327 12.7874,6.3836 12.3817,6.9863 12.8296,7.5584 12.1310,7.3588"/>
<polygon fill="#FFDE00" points="9.3753,9.7809 9.6316,9.1010 9.0643,8.6472 9.7901,8.6809 10.0464,8.0011 10.2386,8.7017 10.9644,8.7355 10.3574,9.1348 10.5496,9.8354 9.9823,9.3816"/>
</svg>